<svg version="1.1" id="Layer_1" xmlns="http://www.w3.org/2000/svg" xmlns:xlink="http://www.w3.org/1999/xlink" x="0px" y="0px"
	 width="100%" viewBox="0 0 1080 1080" enable-background="new 0 0 1080 1080" xml:space="preserve">
<path fill="#FFFFFF" opacity="1.000000" stroke="none" 
	d="
M572.000000,1081.000000 
	C382.855103,1081.000000 194.210205,1080.988403 5.565358,1081.086304 
	C1.936887,1081.088257 0.895617,1080.466309 0.896831,1076.566406 
	C1.007921,719.607605 1.009717,362.648773 0.881947,5.689982 
	C0.880450,1.509243 1.879495,0.896621 5.808996,0.897833 
	C362.601105,1.007914 719.393250,1.007829 1076.185425,0.898634 
	C1080.103271,0.897435 1081.120361,1.491662 1081.118774,5.684381 
	C1080.990234,362.476501 1080.989380,719.268616 1081.123657,1076.060791 
	C1081.125366,1080.453491 1080.010620,1081.102539 1075.940186,1081.099731 
	C908.126892,1080.983154 740.313416,1081.000000 572.000000,1081.000000 
z"/>
<path fill="#040404" opacity="1.000000" stroke="none" 
	d="
M749.598755,244.207458 
	C765.972595,253.395416 768.926819,265.829773 758.529541,280.849487 
	C753.224915,288.512482 747.710327,296.030792 742.449890,303.723389 
	C741.011658,305.826630 740.086121,306.079926 737.865417,304.572510 
	C727.161011,297.306580 727.110107,297.393036 734.631897,286.743378 
	C738.088135,281.849792 741.658142,277.029022 744.927429,272.012848 
	C749.142151,265.546021 748.417969,260.333099 743.062744,256.194489 
	C737.176514,251.645477 730.455505,251.772446 725.685852,257.518921 
	C720.172119,264.161804 715.242126,271.319855 710.438477,278.508026 
	C708.144836,281.940216 706.625793,282.864349 702.927734,279.982330 
	C696.400024,274.895020 690.227722,269.027924 681.773193,266.998749 
	C680.281128,266.640625 679.520020,265.692657 679.681458,264.093384 
	C679.731384,263.598419 679.593018,263.071411 679.704651,262.597656 
	C682.218201,251.924072 677.229309,246.591583 667.264343,243.968048 
	C661.852844,242.543350 656.729248,239.928711 651.597107,237.585083 
	C649.390442,236.577423 648.011780,236.876434 646.370361,238.577209 
	C643.260925,241.799042 640.023254,247.185379 636.653931,247.328873 
	C631.663696,247.541382 626.512329,243.969116 621.376526,241.987686 
	C621.953979,240.016815 623.462708,239.213303 624.594604,238.141068 
	C641.532288,222.097000 658.537720,206.124237 675.416199,190.018311 
	C677.623047,187.912415 679.270508,187.387344 682.278931,188.689926 
	C693.794006,193.675720 693.777100,193.525345 694.080200,205.747070 
	C694.584229,226.070969 695.205261,246.391968 695.783081,266.714020 
	C695.809631,267.650146 695.896301,268.584534 696.030640,270.723846 
	C704.305603,259.024200 711.881714,248.214279 719.579224,237.491531 
	C721.791992,234.409134 723.233276,229.484146 726.591980,228.913681 
	C729.046570,228.496780 732.058105,232.783478 735.146118,234.321701 
	C739.305725,236.393768 738.016296,238.653625 735.314636,241.723618 
	C740.509949,241.962601 745.100586,241.960449 749.598755,244.207458 
z"/>
<path fill="#040404" opacity="1.000000" stroke="none" 
	d="
M224.095688,477.901855 
	C232.394073,486.143463 235.874847,496.045959 235.317398,507.125946 
	C234.740692,518.588928 233.298370,530.006653 232.360199,541.454468 
	C232.157745,543.924744 231.597198,544.742310 228.788132,544.452637 
	C206.928894,542.198608 185.049057,540.141113 163.166183,538.124939 
	C161.003250,537.925598 159.822403,537.717163 160.136398,535.030518 
	C161.527161,523.129639 162.098785,511.098450 164.123383,499.313110 
	C169.137314,470.126556 201.248520,458.658020 224.095688,477.901855 
z"/>
<path fill="#040404" opacity="1.000000" stroke="none" 
	d="
M770.063904,283.945251 
	C787.076477,274.036041 810.599731,287.806915 810.405029,308.446167 
	C814.825134,301.976776 817.304993,306.208557 820.203979,309.441650 
	C825.518738,315.368927 825.606567,315.326691 819.721741,320.776306 
	C809.944397,329.830444 800.240540,338.967590 790.315552,347.857330 
	C782.766174,354.619171 774.016357,359.038025 763.842529,355.050018 
	C748.853699,349.174622 740.226196,337.365479 735.803345,322.178894 
	C735.125610,319.851898 735.773254,318.739594 738.076843,318.397125 
	C738.568298,318.324036 739.046997,318.165192 739.531860,318.047180 
	C742.114136,317.418549 745.035095,315.743134 747.189026,316.439606 
	C749.623291,317.226746 748.818237,321.057465 749.873352,323.439575 
	C751.851074,327.904907 754.272217,332.007599 757.716064,335.482697 
	C765.209229,343.044067 771.952454,343.057159 779.992676,335.209015 
	C766.131104,332.257141 758.039124,323.581360 756.188599,309.980499 
	C754.638062,298.584991 760.314270,290.173187 770.063904,283.945251 
z"/>
<path fill="#040404" opacity="1.000000" stroke="none" 
	d="
M836.919250,634.658325 
	C834.948853,635.416992 832.968872,636.783081 833.885071,633.080627 
	C834.880981,629.055847 835.633789,624.964722 836.333252,620.875244 
	C836.701355,618.723145 838.161255,617.940186 839.899780,617.221069 
	C844.802246,615.193237 849.587280,612.831360 854.599487,611.135803 
	C858.377747,609.857727 859.963623,607.704956 860.692749,603.808716 
	C862.552490,593.872070 862.766418,593.912048 852.754395,591.926758 
	C842.946594,589.982056 842.946594,589.982056 844.889648,580.264526 
	C846.241760,573.502686 846.246826,573.477478 853.161438,574.889954 
	C873.168945,578.977051 893.169312,583.099365 913.179871,587.171387 
	C915.873230,587.719482 917.360779,588.273438 916.456970,591.894958 
	C913.966919,601.873352 912.386719,612.078491 909.904724,622.059143 
	C907.427979,632.018372 902.152222,640.186035 891.932068,643.738953 
	C879.282471,648.136414 864.888733,641.161438 860.366028,628.406921 
	C859.327148,625.477173 858.449585,625.283081 855.961975,626.408447 
	C849.770447,629.209534 843.486450,631.806519 836.919250,634.658325 
z"/>
<path fill="#040404" opacity="1.000000" stroke="none" 
	d="
M187.719727,610.638916 
	C188.347504,609.024292 188.832932,607.793823 189.635773,605.758728 
	C182.145309,607.379517 175.080597,608.641174 168.180984,610.511780 
	C164.633209,611.473633 163.620590,610.546326 162.933960,607.167480 
	C160.554596,595.459290 160.448135,595.539246 171.968384,593.018555 
	C191.916168,588.653625 211.869217,584.307495 231.762772,579.705811 
	C234.971527,578.963562 235.931122,579.643250 236.172287,582.698730 
	C236.327347,584.663452 236.813766,586.657837 237.493179,588.513916 
	C238.978409,592.571472 238.521423,595.281555 233.213867,595.147583 
	C244.834320,606.145386 247.329117,620.474670 239.825150,632.027283 
	C232.586502,643.171448 215.546921,648.173584 202.964630,642.848145 
	C191.186630,637.863159 184.680023,624.405640 187.719727,610.638916 
z"/>
<path fill="#050505" opacity="1.000000" stroke="none" 
	d="
M403.247284,285.488403 
	C394.132904,263.732605 385.217926,242.283203 376.147705,220.899658 
	C374.945984,218.066589 374.769714,216.369492 378.227417,215.510757 
	C379.975739,215.076538 381.616791,214.172440 383.270844,213.404373 
	C386.678314,211.822144 390.271973,209.485382 390.913086,217.454330 
	C394.626007,208.780701 400.428406,204.821014 407.637299,202.554611 
	C413.923157,200.578400 420.139191,200.809601 426.177948,203.321228 
	C438.546539,208.465546 446.247284,224.215561 443.123138,237.695404 
	C439.840302,251.859955 427.901215,259.086334 409.294830,257.871460 
	C412.004181,264.450562 414.456512,270.937439 417.358307,277.216583 
	C418.710327,280.142181 418.053833,281.397980 415.194214,282.148041 
	C411.208832,283.193390 407.976288,286.664368 403.247284,285.488403 
z"/>
<path fill="#040404" opacity="1.000000" stroke="none" 
	d="
M534.122192,907.351196 
	C533.498108,919.887512 533.515015,919.718872 521.699402,918.533264 
	C508.619263,917.220886 495.509735,916.181030 482.399231,915.208374 
	C479.788635,915.014648 478.720795,914.612305 478.853638,911.574402 
	C479.301910,901.325989 479.152557,901.325745 489.300293,902.184692 
	C497.425812,902.872559 505.578461,903.332458 513.667419,904.317444 
	C517.203491,904.748047 517.997253,903.553650 518.021484,900.397217 
	C518.046936,897.079834 518.369324,893.737427 518.891541,890.458435 
	C519.475098,886.794617 518.584045,885.191162 514.464233,885.022583 
	C505.990906,884.676025 497.549683,883.593628 489.077942,883.130737 
	C486.335052,882.980835 485.891479,882.036438 485.962494,879.571167 
	C486.254608,869.428894 486.180420,869.372864 496.260162,870.113953 
	C502.400177,870.565369 508.559326,870.979004 514.646423,871.852173 
	C518.975342,872.473083 520.889160,871.430481 520.921875,866.732910 
	C520.961182,861.087402 521.831116,855.452026 522.030884,849.801331 
	C522.135742,846.837646 522.951477,845.505798 526.128418,846.070557 
	C528.742798,846.535400 531.443848,846.993652 534.065796,846.824402 
	C538.243103,846.554626 539.380127,847.980469 538.968140,852.186890 
	C537.183777,870.404602 535.727295,888.654480 534.122192,907.351196 
z"/>
<path fill="#050505" opacity="1.000000" stroke="none" 
	d="
M836.146179,686.044434 
	C839.529297,678.241699 842.794434,670.802002 846.015930,663.343567 
	C846.522156,662.171387 847.831421,660.800171 846.851868,659.701355 
	C845.813782,658.536682 844.032104,659.125977 842.575562,659.440735 
	C834.825562,661.115662 827.801392,670.940979 829.535522,679.332336 
	C830.589539,684.432678 828.430786,685.461243 824.662231,686.678406 
	C817.807312,688.892151 817.848816,689.020630 816.597595,681.883240 
	C814.322632,668.906494 823.763489,651.596313 836.116211,646.094849 
	C847.383545,641.076782 861.748352,644.906067 869.746277,655.059631 
	C877.872498,665.376099 877.427490,680.755615 868.675476,692.066589 
	C860.569641,702.542480 847.638977,705.586548 835.114502,700.162476 
	C832.066772,698.842529 830.354797,697.668701 832.607666,694.127625 
	C834.101257,691.780090 834.902527,688.992188 836.146179,686.044434 
z"/>
<path fill="#050505" opacity="1.000000" stroke="none" 
	d="
M240.949310,422.082886 
	C250.287613,417.733368 251.152420,418.233551 252.529800,428.444641 
	C254.593506,443.743683 243.256378,461.529724 229.243042,464.977692 
	C218.296326,467.671143 205.822662,463.248230 199.245346,453.893066 
	C191.608154,443.030487 192.361755,431.661865 198.588028,420.556885 
	C205.524048,408.186066 219.946518,403.593414 233.124039,408.948730 
	C235.434677,409.887726 236.001282,410.798065 235.095337,413.269653 
	C232.871567,419.336456 231.016983,425.538574 229.014786,431.686554 
	C227.066910,437.667694 225.120178,443.649231 223.113358,449.813690 
	C228.519821,450.785095 232.383804,448.485474 235.295792,444.538818 
	C239.357254,439.034332 240.920319,432.800568 238.673920,426.196198 
	C237.819977,423.685669 238.669617,422.923615 240.949310,422.082886 
z"/>
<path fill="#050505" opacity="1.000000" stroke="none" 
	d="
M256.707275,343.171143 
	C250.406357,330.699493 251.924316,318.774750 260.843781,308.722534 
	C269.041992,299.483276 280.216034,296.244843 290.979523,300.002380 
	C291.917297,300.329773 292.846313,300.697601 293.744659,301.120361 
	C304.374573,306.122772 304.707611,307.494995 297.396332,316.448303 
	C291.506653,323.660675 285.702271,330.947845 279.627350,338.001465 
	C276.820679,341.260315 278.262390,341.965515 281.489288,342.471466 
	C289.259644,343.689880 298.194305,336.308411 300.248718,327.147675 
	C300.654358,325.338989 299.589203,322.406006 301.786011,321.864441 
	C305.117676,321.043030 308.745972,320.897461 312.179443,321.213165 
	C314.257538,321.404297 313.557068,323.938416 313.504517,325.429108 
	C313.172668,334.843292 308.438782,342.160583 301.876740,348.378998 
	C287.356110,362.139191 268.326813,360.000854 256.707275,343.171143 
z"/>
<path fill="#040404" opacity="1.000000" stroke="none" 
	d="
M208.093567,685.784180 
	C202.601395,671.905212 206.365234,661.596130 219.405960,655.186462 
	C228.490219,650.721375 237.826523,646.771606 246.986969,642.457397 
	C249.098450,641.462891 249.996460,641.740601 251.112747,643.896545 
	C257.189484,655.632141 257.254822,655.585876 245.302887,661.031006 
	C239.714142,663.577087 234.067413,666.013123 228.590332,668.782654 
	C221.834229,672.198853 219.869705,676.856995 222.194275,682.978333 
	C224.703934,689.586975 230.548492,692.998901 237.250717,691.084534 
	C246.218491,688.523132 254.333023,683.821777 262.777893,679.971008 
	C265.864410,678.563660 267.140106,678.864258 268.595062,682.151794 
	C273.407654,693.026062 273.574921,692.962097 262.868408,697.838013 
	C250.781937,703.342346 238.614044,708.676208 226.644775,714.424072 
	C223.339828,716.011169 222.003311,715.381470 220.984390,712.200378 
	C220.430588,710.471497 219.668457,708.773254 218.757156,707.202209 
	C216.740005,703.725037 215.525436,700.627258 222.723343,699.780884 
	C215.396149,696.434204 211.053558,692.016479 208.093567,685.784180 
z"/>
<path fill="#050505" opacity="1.000000" stroke="none" 
	d="
M263.716064,720.251099 
	C269.007538,727.538025 274.171387,734.477844 279.099792,741.580994 
	C281.056091,744.400574 281.955994,743.908264 283.262787,741.161865 
	C286.865540,733.589966 282.292877,722.035522 273.199127,718.538513 
	C268.420410,716.700806 268.548492,714.452698 269.514557,710.577209 
	C271.189423,703.858276 271.966278,703.095947 278.231781,706.315430 
	C290.725494,712.735046 297.921326,723.241028 298.691071,737.225098 
	C299.329193,748.817871 293.092102,757.164307 283.138184,762.554688 
	C269.486359,769.947571 253.139526,764.555969 244.613312,750.141357 
	C236.601761,736.596863 240.371338,720.599670 253.436493,712.086548 
	C255.745941,710.581726 257.101746,710.662476 258.561218,713.078735 
	C260.017242,715.489319 261.834961,717.681519 263.716064,720.251099 
z"/>
<path fill="#040404" opacity="1.000000" stroke="none" 
	d="
M487.697510,238.817780 
	C482.294708,240.191742 477.246796,241.265305 472.024902,240.696304 
	C454.820099,238.821625 444.335876,225.904404 445.942291,208.596191 
	C447.305542,193.907913 461.789764,182.678711 478.122467,183.647858 
	C491.511963,184.442352 501.917389,194.004410 503.999451,207.190384 
	C504.501953,210.373001 503.534241,211.494263 500.363190,212.070511 
	C489.077637,214.121262 477.879059,216.651932 466.590546,218.684402 
	C462.890930,219.350525 463.477844,220.569092 465.221191,222.704987 
	C470.692535,229.408386 483.377106,229.170486 490.963989,222.326111 
	C492.005249,221.386749 492.539459,218.704880 494.693634,220.135834 
	C497.704041,222.135544 500.495789,224.481110 503.213043,226.869812 
	C503.404449,227.038071 502.347748,228.887497 501.641449,229.771423 
	C498.097809,234.206146 493.357208,236.872528 487.697510,238.817780 
z"/>
<path fill="#040404" opacity="1.000000" stroke="none" 
	d="
M320.668396,827.230225 
	C315.574219,819.452393 315.624359,811.646057 320.232513,804.339111 
	C326.261536,794.779297 333.000031,785.668030 339.378845,776.326660 
	C340.475372,774.720886 341.540100,774.428894 342.982666,775.763916 
	C343.103516,775.875732 343.259277,775.949158 343.394562,776.046265 
	C346.772156,778.468872 351.991089,780.297241 353.018921,783.479309 
	C354.090973,786.798401 349.203522,790.212585 346.972473,793.610779 
	C343.686096,798.616394 340.046753,803.390564 336.768036,808.400940 
	C332.352966,815.147888 333.054901,820.414246 338.655457,824.583740 
	C344.647827,829.045105 351.608276,828.557007 356.393127,822.557861 
	C361.676666,815.933472 366.610077,808.982300 371.134552,801.818848 
	C373.599213,797.916565 375.286926,798.206177 378.611572,800.678528 
	C387.265167,807.113831 387.387054,806.954590 381.274811,815.683716 
	C373.447754,826.861877 365.542694,837.986572 357.842010,849.251099 
	C356.051361,851.870483 354.643860,852.560608 352.160156,850.228943 
	C350.719971,848.876892 348.921143,847.904663 347.273682,846.776184 
	C344.507172,844.881287 340.555542,843.311768 346.905182,838.945923 
	C335.364258,839.166565 327.072021,835.512939 320.668396,827.230225 
z"/>
<path fill="#040404" opacity="1.000000" stroke="none" 
	d="
M372.943115,283.941650 
	C366.502716,289.895508 359.298584,293.461975 350.842285,293.874664 
	C332.137024,294.787537 317.390625,275.565552 322.879089,257.597809 
	C326.879486,244.501617 340.839142,234.341736 354.578888,234.526596 
	C367.051270,234.694382 378.098633,243.321304 381.382751,255.966751 
	C384.173553,266.712463 380.975464,275.941681 372.943115,283.941650 
z"/>
<path fill="#040404" opacity="1.000000" stroke="none" 
	d="
M435.858398,836.275635 
	C440.438995,848.247437 438.058044,858.727234 429.709778,867.469482 
	C421.299072,876.277100 410.710754,877.727661 399.376434,873.994629 
	C381.020203,867.948914 372.459320,850.601318 379.646149,834.392944 
	C389.645355,811.841858 417.814667,812.948303 431.974701,830.057190 
	C433.441193,831.829102 434.481659,833.953552 435.858398,836.275635 
z"/>
<path fill="#050505" opacity="1.000000" stroke="none" 
	d="
M890.291931,444.765808 
	C892.296631,450.873138 893.611877,456.699707 892.644958,462.773560 
	C891.208252,471.797424 885.642883,477.403381 877.188171,479.882477 
	C867.000183,482.869843 856.637451,485.258179 846.365662,487.964142 
	C844.184814,488.538666 842.989746,488.203491 842.672485,485.652832 
	C842.408752,483.532684 841.772644,481.415619 841.005310,479.410522 
	C839.531738,475.559418 839.559998,472.683167 845.990723,472.810516 
	C835.879028,466.671936 833.550720,457.989532 833.985657,448.231903 
	C834.315125,440.839417 838.950378,435.432648 846.049561,433.516388 
	C852.791809,431.696411 858.980225,434.259705 863.133423,440.668793 
	C867.109619,446.804840 868.251343,453.930359 870.045044,460.822784 
	C871.217407,465.327881 872.135010,465.650391 875.734192,462.736969 
	C878.254700,460.696686 879.219604,458.003876 879.156433,454.816132 
	C879.001709,447.010254 875.272400,440.910492 869.836853,435.447754 
	C871.546143,433.919067 873.142090,432.467499 874.764038,431.045563 
	C879.608521,426.798676 879.636169,426.785309 883.672852,432.117828 
	C886.498657,435.850800 888.684143,439.938141 890.291931,444.765808 
z"/>
<path fill="#040404" opacity="1.000000" stroke="none" 
	d="
M803.002441,352.020386 
	C813.111145,343.745819 824.692566,338.479523 835.298889,331.658356 
	C836.732666,330.736206 837.370422,331.311432 838.012451,332.475983 
	C838.252686,332.911743 838.557617,333.311737 838.798950,333.746948 
	C840.792725,337.341827 844.682617,341.247955 844.167847,344.442596 
	C843.751709,347.025116 838.050171,348.792053 834.649902,350.849274 
	C829.391113,354.030975 823.993164,356.994080 818.841736,360.338715 
	C812.608826,364.385498 811.064575,369.571198 814.023682,375.169739 
	C817.339478,381.443054 823.461487,383.933441 830.020325,381.056488 
	C838.400696,377.380554 845.922729,372.095490 853.732605,367.376251 
	C856.648499,365.614227 857.979248,365.771210 859.770447,368.855621 
	C865.725647,379.110321 865.862915,379.032013 855.718140,385.070984 
	C844.298584,391.868774 832.824097,398.576843 821.496948,405.525238 
	C818.794434,407.183014 817.194641,407.455444 815.872314,404.181427 
	C815.196167,402.507385 814.183777,400.916626 813.074463,399.480560 
	C810.430847,396.058289 809.534607,393.149872 815.852295,391.415741 
	C805.061523,387.952637 799.200195,380.954803 797.049316,370.998352 
	C795.504272,363.846161 797.484131,357.491272 803.002441,352.020386 
z"/>
<path fill="#040404" opacity="1.000000" stroke="none" 
	d="
M828.450684,737.679565 
	C833.429810,732.804565 835.985474,727.100098 836.593018,720.640747 
	C836.834534,718.072754 837.747925,717.811951 839.991638,717.939148 
	C849.560486,718.481506 850.492920,719.565186 847.898315,728.639160 
	C845.572205,736.774170 841.506714,743.973694 835.299072,749.785522 
	C827.610779,756.983704 818.734863,758.478699 809.711670,753.101868 
	C800.026428,747.330505 790.911316,740.606689 781.478699,734.402954 
	C779.679871,733.219910 779.924194,732.250977 780.996277,730.833984 
	C782.197998,729.245544 783.326233,727.594177 784.385620,725.906860 
	C786.418091,722.669922 788.153809,718.722839 793.074463,723.933655 
	C791.065063,713.282532 795.640442,706.021057 802.571350,699.969666 
	C808.689331,694.627991 816.567871,694.300354 822.789368,698.630676 
	C828.966736,702.930298 830.830933,709.682983 828.056213,717.680664 
	C825.898987,723.898682 821.770142,728.945496 818.234253,734.351135 
	C817.460266,735.534363 815.677490,736.696716 816.438110,738.158569 
	C817.310852,739.836121 819.402039,740.007141 821.239502,740.161499 
	C823.863037,740.381775 826.154785,739.610535 828.450684,737.679565 
z"/>
<path fill="#050505" opacity="1.000000" stroke="none" 
	d="
M657.397461,827.256897 
	C660.572693,827.473450 662.216187,828.397949 661.216736,831.622803 
	C660.832275,832.863464 660.899963,834.261841 660.868225,835.590881 
	C660.786377,839.014587 660.090881,840.857300 655.675354,840.170532 
	C648.855469,839.109924 642.070190,840.277100 635.823364,843.503662 
	C633.556763,844.674438 631.303833,846.175110 632.011047,849.220825 
	C632.791931,852.583923 635.690674,852.127197 638.120361,851.918274 
	C643.911377,851.420288 649.572937,849.882751 655.437256,849.846130 
	C661.742065,849.806763 666.972412,851.690491 669.795898,857.724854 
	C672.738342,864.013489 672.291260,870.249573 667.547913,875.391418 
	C658.141113,885.588867 645.809082,888.125488 632.562805,887.720215 
	C631.195984,887.678406 629.911133,887.268555 630.187195,885.338989 
	C630.587585,882.541321 630.924988,879.733337 631.223022,876.922668 
	C631.508911,874.226624 633.465332,875.013306 634.995728,875.114380 
	C640.736938,875.493469 646.281738,874.830750 651.471069,872.186157 
	C654.210388,870.790161 657.109070,869.193909 656.048828,865.488342 
	C655.041016,861.966309 651.762207,862.891296 649.259216,863.107178 
	C643.964355,863.563599 638.713013,864.618286 633.414856,864.921631 
	C625.557312,865.371460 620.595337,862.409973 618.039673,856.368713 
	C615.338318,849.982971 616.646729,843.279053 622.247803,838.215942 
	C632.088196,829.320618 644.134888,826.910645 657.397461,827.256897 
z"/>
<path fill="#040404" opacity="1.000000" stroke="none" 
	d="
M753.555969,783.484619 
	C746.491211,785.484558 745.889709,785.007568 745.815002,777.805481 
	C745.690796,765.833801 755.439087,753.453613 768.422058,749.094666 
	C780.161499,745.153320 792.559753,749.310608 800.186279,759.745544 
	C807.308594,769.490601 807.125610,782.662781 799.411377,793.230957 
	C792.789490,802.302551 784.450195,808.299988 772.426331,807.070801 
	C768.959290,806.716309 767.122742,805.663147 768.955383,801.858154 
	C769.523132,800.679321 769.754578,799.329468 770.072571,798.041321 
	C770.926880,794.580933 771.538452,792.055176 776.703491,792.637817 
	C783.937500,793.453918 790.456299,785.967896 790.437988,778.489807 
	C790.418640,770.576904 782.675232,762.755737 774.731323,762.625427 
	C767.196777,762.501892 759.565613,768.870605 760.382874,776.118713 
	C761.061646,782.138672 757.738220,782.438171 753.555969,783.484619 
z"/>
<path fill="#040404" opacity="1.000000" stroke="none" 
	d="
M212.679108,384.632263 
	C214.084305,380.368347 216.471924,379.260315 220.699585,379.869293 
	C232.044617,381.503479 243.467850,382.594940 255.252975,383.947021 
	C254.226562,380.999817 252.152191,379.126678 250.506378,377.016571 
	C244.675140,369.540222 238.856354,362.048706 232.795486,354.760315 
	C230.987991,352.586731 230.800095,350.975159 232.277802,348.658508 
	C234.300049,345.488129 236.017899,342.123596 238.128357,338.376892 
	C250.362381,353.805573 262.209167,368.767120 274.096924,383.696075 
	C275.012451,384.845856 275.528351,385.858765 274.740234,387.268616 
	C272.634155,391.036102 270.494598,394.788422 268.524170,398.626740 
	C267.587524,400.451324 266.120514,400.106293 264.686371,399.957306 
	C245.841797,397.999573 227.000214,396.013153 207.579269,393.973145 
	C209.373947,390.672791 210.931015,387.809387 212.679108,384.632263 
z"/>
<path fill="#040404" opacity="1.000000" stroke="none" 
	d="
M722.863342,801.494934 
	C721.850647,802.155640 721.214783,802.734253 720.467957,803.052124 
	C718.476746,803.899536 718.585327,807.852112 716.205750,807.040222 
	C713.154175,805.999084 710.487061,803.744080 707.769348,801.847168 
	C706.364868,800.866943 707.636902,799.690552 708.085266,798.777832 
	C715.630310,783.420471 734.045105,781.454773 744.306702,794.918579 
	C748.031982,799.806274 751.703735,804.740845 755.212341,809.784546 
	C756.774231,812.029907 758.176941,813.302185 760.414795,810.777893 
	C763.601135,807.183716 765.792542,808.508545 767.668640,812.092773 
	C768.126343,812.967102 768.724365,813.810730 769.416687,814.511658 
	C771.600769,816.723022 771.874390,818.570496 768.699402,820.097534 
	C765.144104,821.807312 765.282166,823.745361 767.677917,826.781860 
	C773.106018,833.661865 772.930969,833.800049 765.995972,838.891113 
	C759.931824,843.342773 759.684082,843.504822 755.623169,837.295532 
	C752.995178,833.277344 750.881531,832.197083 747.071350,835.887085 
	C745.284119,837.618042 742.679077,840.908020 740.691528,839.733459 
	C737.919739,838.095398 736.252197,834.524353 734.242371,831.688171 
	C733.191711,830.205383 734.853638,829.749695 735.599487,829.024841 
	C738.247314,826.451477 743.738159,825.400879 743.531128,821.810425 
	C743.346191,818.603271 739.484619,815.603516 737.232666,812.521606 
	C735.272339,809.838928 733.285461,807.175537 731.326233,804.492004 
	C729.286621,801.698303 726.766907,800.159363 722.863342,801.494934 
z"/>
<path fill="#030303" opacity="1.000000" stroke="none" 
	d="
M303.862061,773.851562 
	C304.934631,772.772644 305.760681,771.949158 306.581207,771.120178 
	C313.360962,764.270569 313.042053,761.102295 304.754791,756.259277 
	C303.367828,755.448853 303.387177,755.120483 303.800781,753.780090 
	C306.857910,743.872803 309.770966,743.013733 317.871094,749.780334 
	C329.413879,759.422791 330.003174,770.355957 319.529388,781.008179 
	C315.323975,785.285217 311.215179,789.673035 306.790253,793.712219 
	C304.408936,795.886108 304.503723,797.377930 306.956482,799.087341 
	C310.115051,801.288696 310.325989,803.469299 307.035950,805.775757 
	C306.230347,806.340576 305.502655,807.095398 304.929108,807.898499 
	C302.702667,811.015869 300.524139,811.291931 298.267670,807.960205 
	C296.344208,805.120239 294.778900,805.762451 292.593750,808.014465 
	C285.980072,814.830750 285.878998,814.732727 279.153503,808.044373 
	C274.507324,803.424011 274.507355,803.423950 279.039093,798.855530 
	C284.050568,793.803406 284.050354,793.803711 278.854736,788.644226 
	C277.909119,787.705078 277.033630,786.680969 276.007355,785.840698 
	C274.434052,784.552673 274.817139,783.627258 276.025269,782.200317 
	C282.393402,774.679138 282.464020,774.524658 289.488007,781.851929 
	C291.941986,784.411926 293.470703,785.051453 295.931458,781.960815 
	C298.201019,779.110291 301.030243,776.705444 303.862061,773.851562 
z"/>
<path fill="#050505" opacity="1.000000" stroke="none" 
	d="
M932.936951,573.692505 
	C933.407837,577.800842 932.096985,578.169312 928.849731,576.890564 
	C899.232971,565.226990 869.577393,553.660950 839.878906,542.206970 
	C837.205444,541.175903 836.372620,539.925110 836.644470,537.141724 
	C836.965210,533.858521 836.719788,530.519958 836.719788,526.414307 
	C845.397766,529.773865 853.369934,532.851929 861.336121,535.945618 
	C882.354309,544.108032 903.372131,552.271484 924.385437,560.446411 
	C933.135315,563.850464 933.129944,563.864258 932.936951,573.692505 
z"/>
<path fill="#040404" opacity="1.000000" stroke="none" 
	d="
M668.355408,796.320618 
	C673.113037,792.781311 677.968384,790.432373 683.602173,789.768555 
	C686.344421,789.445435 687.700867,790.254150 687.678955,793.117493 
	C687.668823,794.445374 687.788574,795.787598 687.992249,797.101074 
	C688.464294,800.145630 688.276489,801.950195 684.227600,802.581177 
	C677.811035,803.580933 676.208862,807.810730 679.215454,814.194519 
	C686.363342,829.371460 693.526489,844.543640 700.935608,859.593506 
	C702.582458,862.938538 702.052856,864.250671 698.722290,865.774902 
	C688.128357,870.623352 688.180725,870.767578 683.239197,860.360352 
	C676.969604,847.156006 670.658508,833.970825 664.482849,820.722595 
	C659.891724,810.873352 661.021057,803.845154 668.355408,796.320618 
z"/>
<path fill="#050505" opacity="1.000000" stroke="none" 
	d="
M882.661133,391.779266 
	C892.098450,387.825897 892.098450,387.825897 895.750488,396.730835 
	C898.224426,402.763153 898.228943,402.774170 891.851868,405.377869 
	C871.599731,413.646484 851.305725,421.814850 831.128357,430.261719 
	C827.886047,431.619080 826.792542,431.233978 825.491821,427.955811 
	C821.085022,416.848816 820.932495,416.897858 832.106567,412.344330 
	C848.835205,405.527252 865.570190,398.725769 882.661133,391.779266 
z"/>
<path fill="#040404" opacity="1.000000" stroke="none" 
	d="
M312.656830,304.356049 
	C300.834442,291.490265 289.327637,278.812347 277.607391,266.334900 
	C275.327179,263.907349 275.444061,262.586639 277.965607,260.710236 
	C281.123596,258.360229 283.615723,253.360275 286.950775,253.596222 
	C289.772827,253.795883 292.336517,258.463043 294.908081,261.251251 
	C308.656647,276.157928 322.323608,291.140381 336.148743,305.975525 
	C338.305847,308.290192 338.491241,309.531616 335.998352,311.810791 
	C327.017975,320.021210 327.113647,320.129944 318.945496,311.246338 
	C316.920471,309.043945 314.913269,306.825165 312.656830,304.356049 
z"/>
<path fill="#050505" opacity="1.000000" stroke="none" 
	d="
M892.205078,528.010498 
	C889.847534,528.348999 888.737183,528.027222 888.598938,525.613770 
	C887.896118,513.345276 879.127380,509.988556 869.164246,511.596710 
	C862.449280,512.680603 855.573669,512.733215 848.799133,513.503784 
	C846.441223,513.772034 845.292419,513.285034 845.271484,510.851959 
	C845.270081,510.686249 845.234863,510.521118 845.222778,510.355194 
	C844.934082,506.385010 843.129333,501.557465 844.760071,498.671265 
	C846.611755,495.394104 852.061951,497.132629 855.921692,496.725677 
	C869.154846,495.330414 882.427368,494.309662 895.662354,492.930298 
	C898.996948,492.582703 900.245117,493.575958 900.019165,496.857849 
	C899.917297,498.337311 900.171265,499.845703 900.311340,501.336487 
	C900.670593,505.158875 903.061768,510.286346 893.366394,507.715332 
	C899.037842,512.907959 901.776306,517.420959 902.943115,522.820740 
	C903.566895,525.707886 903.307556,527.540222 899.596619,527.337952 
	C897.300049,527.212769 894.967346,527.749939 892.205078,528.010498 
z"/>
<path fill="#040404" opacity="1.000000" stroke="none" 
	d="
M458.296875,863.058350 
	C460.285431,855.278137 462.262238,847.898926 463.946381,840.453491 
	C464.557831,837.750427 465.391449,837.153198 468.246033,837.818298 
	C480.682861,840.716187 480.672821,840.582886 477.523804,853.014832 
	C474.303131,865.729614 471.096008,878.448975 468.054901,891.207336 
	C467.392914,893.984680 466.537750,895.299133 463.504211,894.088989 
	C461.826935,893.419800 459.983734,893.092651 458.183685,892.819885 
	C453.954224,892.178772 450.628357,891.007812 453.998932,884.607178 
	C447.957611,887.946350 442.606689,888.639893 436.966644,888.114075 
	C433.894073,887.827576 433.284973,886.551575 434.122589,883.940369 
	C434.325653,883.307434 434.542511,882.677612 434.712952,882.035706 
	C435.436646,879.310547 435.396484,875.908691 437.071411,874.044006 
	C438.723907,872.204346 441.827698,874.547485 444.354218,874.651733 
	C451.118103,874.930725 455.500305,871.443909 458.296875,863.058350 
z"/>
<path fill="#040404" opacity="1.000000" stroke="none" 
	d="
M536.969849,178.804443 
	C546.847656,175.728180 546.626831,175.741898 547.236206,185.548538 
	C547.504639,189.868317 547.125916,191.986313 541.890137,192.084137 
	C534.557007,192.221146 529.990356,197.201736 529.844299,204.702972 
	C529.679199,213.186279 529.989746,221.691757 530.454773,230.167770 
	C530.628906,233.340698 529.742798,234.029419 526.697327,234.105270 
	C514.225830,234.415909 514.307495,234.526123 513.963440,222.125961 
	C513.603149,209.139984 513.230957,196.149857 512.510376,183.181198 
	C512.308228,179.542725 513.389343,178.478699 516.761414,178.783524 
	C518.405396,178.932144 520.132568,178.896912 521.741394,178.559769 
	C526.563660,177.549240 529.199585,178.766174 527.687866,185.034897 
	C531.055725,182.657181 533.274292,179.913528 536.969849,178.804443 
z"/>
<path fill="#060606" opacity="1.000000" stroke="none" 
	d="
M585.453918,852.462891 
	C585.111145,859.850098 581.494690,863.731262 575.383179,863.736511 
	C570.065918,863.741089 566.032349,859.905762 565.645874,854.477661 
	C565.273499,849.248047 568.489197,844.856323 573.369995,843.928833 
	C579.398071,842.783325 583.470215,845.551636 585.453918,852.462891 
z"/>
<path fill="#060606" opacity="1.000000" stroke="none" 
	d="
M706.009583,820.060303 
	C701.928650,822.869751 697.944031,823.316406 694.122070,820.693420 
	C690.546692,818.239746 689.147156,814.580933 689.935364,810.264221 
	C690.702698,806.062134 693.455383,803.601685 697.433105,802.551514 
	C702.015015,801.341736 705.553528,803.140442 708.091797,806.929810 
	C711.074585,811.382935 710.518372,814.988403 706.009583,820.060303 
z"/>
<path fill="#060606" opacity="1.000000" stroke="none" 
	d="
M583.025940,219.908600 
	C587.369080,217.307800 591.330322,217.709000 594.981995,220.313721 
	C598.035034,222.491409 599.399048,225.690186 598.750061,229.439590 
	C597.981384,233.880463 595.568604,237.143250 590.939514,237.977921 
	C586.292053,238.815918 582.414490,237.335938 579.987610,233.053101 
	C577.638428,228.907410 578.639709,224.317169 583.025940,219.908600 
z"/>
<path fill="#050505" opacity="1.000000" stroke="none" 
	d="
M692.881714,883.001587 
	C692.816223,880.858521 693.409729,879.321655 694.352051,877.914978 
	C697.030334,873.916931 702.932129,871.966003 707.100403,873.766968 
	C711.336731,875.597351 713.040710,878.931519 712.270630,883.409119 
	C711.495605,887.916016 706.674133,891.611450 701.714294,891.722717 
	C697.073730,891.826843 694.094299,889.022888 692.881714,883.001587 
z"/>
<path fill="#F6F6F6" opacity="1.000000" stroke="none" 
	d="
M675.352783,233.797150 
	C669.662598,231.398224 664.342590,229.144928 659.707153,227.181595 
	C666.350891,220.489349 673.035583,213.755890 679.789062,206.953110 
	C679.789062,215.411163 679.875671,224.132614 679.752808,232.851120 
	C679.690613,237.264069 677.135742,233.793198 675.352783,233.797150 
z"/>
<path fill="#FCFCFC" opacity="1.000000" stroke="none" 
	d="
M218.828979,496.433258 
	C223.662476,506.112244 220.679581,515.728088 220.032516,525.255737 
	C219.905609,527.124023 218.592026,526.573120 217.465485,526.466858 
	C204.535049,525.248108 191.606796,524.003235 178.668411,522.874756 
	C176.137405,522.653992 175.204956,521.848267 175.633347,519.142090 
	C176.283035,515.037781 176.473328,510.862152 176.903976,506.721527 
	C178.003082,496.153473 183.820724,488.516846 192.458374,486.258820 
	C202.619446,483.602539 212.684723,487.377716 218.828979,496.433258 
z"/>
<path fill="#FAFAFA" opacity="1.000000" stroke="none" 
	d="
M798.360352,304.930542 
	C801.848938,313.968842 798.814636,321.383331 790.772400,324.311157 
	C783.541626,326.943634 774.579956,321.894470 772.030029,313.751434 
	C769.730347,306.407776 773.919373,298.836761 781.506165,296.624756 
	C787.563965,294.858459 793.259888,297.590668 798.360352,304.930542 
z"/>
<path fill="#FAFAFA" opacity="1.000000" stroke="none" 
	d="
M889.526245,599.475952 
	C900.394165,601.474182 900.416870,601.479004 898.190002,611.923035 
	C897.638611,614.508789 897.124512,617.142517 896.183960,619.597412 
	C893.619141,626.291687 888.451904,629.158020 882.134155,627.659180 
	C875.261536,626.028748 871.499329,620.830078 872.411682,613.610596 
	C873.013977,608.844849 874.291260,604.167603 875.003235,599.411316 
	C875.408875,596.701294 876.894592,596.760376 878.891968,597.198486 
	C882.295959,597.945129 885.712952,598.631958 889.526245,599.475952 
z"/>
<path fill="#FBFBFB" opacity="1.000000" stroke="none" 
	d="
M199.375183,612.523438 
	C201.754883,604.261719 207.264450,600.104614 215.566299,599.976318 
	C222.144867,599.874756 227.095337,603.323975 229.208694,609.481750 
	C231.911636,617.357361 228.046616,624.835876 219.852936,627.584473 
	C210.767410,630.632263 202.490448,626.988037 200.057541,618.804504 
	C199.492035,616.902344 198.963165,614.950989 199.375183,612.523438 
z"/>
<path fill="#FBFBFB" opacity="1.000000" stroke="none" 
	d="
M398.627563,229.132996 
	C400.087372,219.740601 407.133850,214.439529 415.549103,215.984741 
	C423.140320,217.378616 429.285034,227.312912 427.482056,235.277023 
	C425.696808,243.163055 417.796326,248.017624 409.996765,246.021149 
	C403.650177,244.396622 399.547668,238.468384 398.627563,229.132996 
z"/>
<path fill="#F6F6F6" opacity="1.000000" stroke="none" 
	d="
M861.875793,679.568848 
	C859.291748,685.426086 855.166321,688.534180 849.046265,688.632446 
	C846.610962,688.671509 845.376282,688.131226 846.783630,685.143433 
	C850.152771,677.990845 853.144165,670.660217 856.300598,663.372375 
	C862.517151,667.262390 864.066650,671.685791 861.875793,679.568848 
z"/>
<path fill="#F5F5F5" opacity="1.000000" stroke="none" 
	d="
M216.075378,421.863373 
	C222.564438,420.600372 222.719025,420.754150 220.891769,426.366974 
	C218.901886,432.479401 216.813843,438.561401 214.930359,444.706207 
	C214.129196,447.319977 213.128845,447.239685 211.201370,445.733978 
	C203.154236,439.447693 205.498825,426.862274 216.075378,421.863373 
z"/>
<path fill="#F5F5F5" opacity="1.000000" stroke="none" 
	d="
M267.921143,332.765869 
	C265.036011,325.887329 265.888672,320.723114 270.677094,316.124908 
	C274.568268,312.388275 279.096313,311.033325 284.394287,312.893280 
	C286.379456,313.590210 287.194733,314.175690 285.469421,316.200928 
	C280.729309,321.764984 276.134338,327.454529 271.560028,333.157013 
	C270.246490,334.794525 269.209076,335.450928 267.921143,332.765869 
z"/>
<path fill="#F5F5F5" opacity="1.000000" stroke="none" 
	d="
M259.965912,731.114746 
	C263.960907,736.633911 267.650909,741.948669 271.629181,747.038086 
	C273.947754,750.004272 272.799408,750.814514 269.781982,751.400635 
	C264.022552,752.519470 259.747467,750.187073 256.373291,745.832764 
	C252.895340,741.344543 252.607544,735.490601 255.221786,730.880737 
	C256.821655,728.059631 258.216675,727.776123 259.965912,731.114746 
z"/>
<path fill="#F6F6F6" opacity="1.000000" stroke="none" 
	d="
M486.511658,205.045792 
	C478.669312,206.647888 471.191589,208.147491 463.730438,209.725677 
	C461.920288,210.108551 460.935394,210.020416 461.074890,207.703598 
	C461.420105,201.969376 466.919128,196.666214 473.457794,195.988068 
	C480.132416,195.295822 485.934265,198.766098 487.517395,204.434677 
	C487.548492,204.546051 487.104645,204.790054 486.511658,205.045792 
z"/>
<path fill="#FBFBFB" opacity="1.000000" stroke="none" 
	d="
M360.000519,277.329132 
	C351.708862,281.038879 345.399780,279.386139 340.551880,272.544556 
	C335.771851,265.798767 335.923676,258.688904 340.958740,253.494156 
	C347.078064,247.180725 356.105103,247.376068 362.006226,253.949615 
	C369.197052,261.959869 368.564545,270.638733 360.000519,277.329132 
z"/>
<path fill="#FBFBFB" opacity="1.000000" stroke="none" 
	d="
M393.008545,847.141479 
	C393.367645,843.342407 394.597992,840.275940 396.477631,837.484192 
	C400.154877,832.022522 406.101044,829.929077 412.140991,831.890686 
	C418.800049,834.053223 422.505463,839.364197 422.135651,846.215881 
	C421.664124,854.950806 414.872284,862.074707 407.127808,861.957458 
	C399.224152,861.837769 393.523041,856.029907 393.008545,847.141479 
z"/>
<path fill="#F6F6F6" opacity="1.000000" stroke="none" 
	d="
M848.659180,464.163208 
	C846.707703,461.146332 845.728943,458.229980 845.870483,454.959656 
	C846.017273,451.568756 847.535706,449.312744 850.932068,448.549011 
	C854.280518,447.796112 856.583252,449.567871 857.634766,452.336273 
	C859.268738,456.638214 860.306274,461.165680 861.621582,465.590149 
	C862.101379,467.204254 861.077820,467.527466 859.874268,467.914551 
	C855.376526,469.361115 851.790771,468.047302 848.659180,464.163208 
z"/>
<path fill="#F6F6F6" opacity="1.000000" stroke="none" 
	d="
M801.490967,726.186340 
	C800.304016,720.368103 802.436890,716.049316 806.384155,712.579712 
	C808.848267,710.413818 811.759766,709.997253 814.558838,712.120422 
	C817.180908,714.109314 817.493958,716.674866 816.245117,719.644226 
	C814.426270,723.968811 811.317200,727.460876 808.876587,731.381897 
	C807.819397,733.080383 806.815491,732.072144 805.655823,731.360291 
	C803.749146,730.189819 802.210815,728.805359 801.490967,726.186340 
z"/>
</svg>